<svg width="586" height="163" viewBox="0 0 586 163" fill="none" xmlns="http://www.w3.org/2000/svg">
<rect width="586" height="163" fill="black"/>
<path d="M201.332 51H286.959L286.221 61.7917H199.855L201.332 51Z" fill="white"/>
<path d="M199.08 64.875H231.415L230.646 73.3542H209.088L206.779 88H196L199.08 64.875Z" fill="white"/>
<path d="M234.495 64.875H246.814L242.964 88H231.416L234.495 64.875Z" fill="white"/>
<path d="M260.671 64.875H272.99L269.14 88H257.592L260.671 64.875Z" fill="white"/>
<path d="M303.916 51H390.25L388.247 61.7917H301.989L303.916 51Z" fill="white"/>
<path d="M275.3 74.125H286.848V77.2083H299.167C300.02 75.266 301.253 72.4708 301.604 64.875H312.782C310.469 80.2917 309.313 84.5312 303.016 88H279.149C274.698 86.4075 273.991 83.203 275.3 74.125Z" fill="white"/>
<path d="M315.335 64.875H326.883L326.113 77.2083H338.432L339.202 64.875H351.52L349.98 79.5208C348.122 85.9737 346.169 87.9437 340.741 88H319.184C314.624 86.7719 313.524 84.6546 313.795 78.75L315.335 64.875Z" fill="white"/>
<path d="M354.6 64.875H387.552L386.01 73.3542H365.378V77.2083H385.24L383.698 88H351.52L354.6 64.875Z" fill="white"/>
</svg>
