<svg width="50" height="30" viewBox="0 0 50 30" fill="none" xmlns="http://www.w3.org/2000/svg">
<path d="M10.6795 0H32.0385L31.5531 7.75H12.3785C10.8327 8.72625 10.5014 9.45131 10.6795 11L31.0677 11.25L30.5822 18.25H9.70865L8.9805 30H0L1.4563 13C1.4563 13 1.21358 10.75 2.91259 5.5C4.61161 0.25 10.6795 0 10.6795 0Z" fill="black"/>
<path d="M41.2622 0H50L48.301 20C48.301 20 47.6746 23.5929 45.6311 26.25C43.8638 28.2986 42.4752 29.0035 39.3205 29.5H30.0973L30.5827 22H37.1361C37.1361 22 38.5924 21.75 39.3205 19.5C40.0487 17.25 41.2622 0 41.2622 0Z" fill="black"/>
</svg>
